<mxfile host="app.diagrams.net" agent="Mozilla/5.0 (Windows NT 10.0; Win64; x64) AppleWebKit/537.36 (KHTML, like Gecko) Chrome/134.0.0.0 Safari/537.36 Edg/134.0.0.0" version="26.1.3" pages="3">
  <diagram id="C5RBs43oDa-KdzZeNtuy" name="Main">
    <mxGraphModel dx="1971" dy="867" grid="0" gridSize="10" guides="1" tooltips="1" connect="1" arrows="1" fold="1" page="1" pageScale="1" pageWidth="827" pageHeight="1169" math="0" shadow="0">
      <root>
        <mxCell id="WIyWlLk6GJQsqaUBKTNV-0" />
        <mxCell id="WIyWlLk6GJQsqaUBKTNV-1" parent="WIyWlLk6GJQsqaUBKTNV-0" />
        <mxCell id="0LOkazQDAtXmxDKKcfvk-24" value="&lt;font&gt;Controller Assembly&lt;/font&gt;" style="swimlane;whiteSpace=wrap;html=1;startSize=30;fontSize=20;" parent="WIyWlLk6GJQsqaUBKTNV-1" vertex="1">
          <mxGeometry x="240" y="50" width="850" height="410" as="geometry" />
        </mxCell>
        <mxCell id="WKrA7h7dWS1TObsF-bHl-0" value="ControllerPVP&lt;div&gt;&lt;br&gt;&lt;/div&gt;" style="swimlane;fontStyle=1;align=center;verticalAlign=top;childLayout=stackLayout;horizontal=1;startSize=26;horizontalStack=0;resizeParent=1;resizeParentMax=0;resizeLast=0;collapsible=1;marginBottom=0;whiteSpace=wrap;html=1;" parent="0LOkazQDAtXmxDKKcfvk-24" vertex="1">
          <mxGeometry x="80" y="60" width="230" height="330" as="geometry" />
        </mxCell>
        <mxCell id="WKrA7h7dWS1TObsF-bHl-1" value="+ defaultGun: string&lt;br&gt;+ usedMap:&amp;nbsp;&lt;br&gt;+ objective : int&lt;br&gt;+ players: List&amp;lt;Player&amp;gt;&lt;br&gt;+ winner: int&lt;br&gt;+ battleState: battleState" style="text;strokeColor=none;fillColor=none;align=left;verticalAlign=top;spacingLeft=4;spacingRight=4;overflow=hidden;rotatable=0;points=[[0,0.5],[1,0.5]];portConstraint=eastwest;whiteSpace=wrap;html=1;" parent="WKrA7h7dWS1TObsF-bHl-0" vertex="1">
          <mxGeometry y="26" width="230" height="204" as="geometry" />
        </mxCell>
        <mxCell id="WKrA7h7dWS1TObsF-bHl-2" value="" style="line;strokeWidth=1;fillColor=none;align=left;verticalAlign=middle;spacingTop=-1;spacingLeft=3;spacingRight=3;rotatable=0;labelPosition=right;points=[];portConstraint=eastwest;strokeColor=inherit;" parent="WKrA7h7dWS1TObsF-bHl-0" vertex="1">
          <mxGeometry y="230" width="230" height="8" as="geometry" />
        </mxCell>
        <mxCell id="WKrA7h7dWS1TObsF-bHl-3" value="+ void RoundEnd(int index): subscribe to &amp;lt;Player&amp;gt;.OnPlayerDeath" style="text;strokeColor=none;fillColor=none;align=left;verticalAlign=top;spacingLeft=4;spacingRight=4;overflow=hidden;rotatable=0;points=[[0,0.5],[1,0.5]];portConstraint=eastwest;whiteSpace=wrap;html=1;" parent="WKrA7h7dWS1TObsF-bHl-0" vertex="1">
          <mxGeometry y="238" width="230" height="92" as="geometry" />
        </mxCell>
        <mxCell id="WKrA7h7dWS1TObsF-bHl-51" value="UIManager" style="swimlane;fontStyle=1;align=center;verticalAlign=top;childLayout=stackLayout;horizontal=1;startSize=26;horizontalStack=0;resizeParent=1;resizeParentMax=0;resizeLast=0;collapsible=1;marginBottom=0;whiteSpace=wrap;html=1;" parent="0LOkazQDAtXmxDKKcfvk-24" vertex="1">
          <mxGeometry x="430" y="80" width="160" height="86" as="geometry" />
        </mxCell>
        <mxCell id="WKrA7h7dWS1TObsF-bHl-52" value="+ field: type" style="text;strokeColor=none;fillColor=none;align=left;verticalAlign=top;spacingLeft=4;spacingRight=4;overflow=hidden;rotatable=0;points=[[0,0.5],[1,0.5]];portConstraint=eastwest;whiteSpace=wrap;html=1;" parent="WKrA7h7dWS1TObsF-bHl-51" vertex="1">
          <mxGeometry y="26" width="160" height="26" as="geometry" />
        </mxCell>
        <mxCell id="WKrA7h7dWS1TObsF-bHl-53" value="" style="line;strokeWidth=1;fillColor=none;align=left;verticalAlign=middle;spacingTop=-1;spacingLeft=3;spacingRight=3;rotatable=0;labelPosition=right;points=[];portConstraint=eastwest;strokeColor=inherit;" parent="WKrA7h7dWS1TObsF-bHl-51" vertex="1">
          <mxGeometry y="52" width="160" height="8" as="geometry" />
        </mxCell>
        <mxCell id="WKrA7h7dWS1TObsF-bHl-54" value="+ method(type): type" style="text;strokeColor=none;fillColor=none;align=left;verticalAlign=top;spacingLeft=4;spacingRight=4;overflow=hidden;rotatable=0;points=[[0,0.5],[1,0.5]];portConstraint=eastwest;whiteSpace=wrap;html=1;" parent="WKrA7h7dWS1TObsF-bHl-51" vertex="1">
          <mxGeometry y="60" width="160" height="26" as="geometry" />
        </mxCell>
        <mxCell id="tbJu6EGKg0CLnxY4LfZ--1" style="edgeStyle=orthogonalEdgeStyle;rounded=0;orthogonalLoop=1;jettySize=auto;html=1;entryX=0.5;entryY=0;entryDx=0;entryDy=0;" edge="1" parent="WIyWlLk6GJQsqaUBKTNV-1" source="0LOkazQDAtXmxDKKcfvk-26" target="O3TxoCL6-MyPkNKw1bHR-8">
          <mxGeometry relative="1" as="geometry" />
        </mxCell>
        <mxCell id="0LOkazQDAtXmxDKKcfvk-26" value="&lt;span style=&quot;font-size: 19px;&quot;&gt;Player Assembly&lt;/span&gt;" style="swimlane;whiteSpace=wrap;html=1;startSize=30;" parent="WIyWlLk6GJQsqaUBKTNV-1" vertex="1">
          <mxGeometry x="100" y="600" width="410" height="265" as="geometry" />
        </mxCell>
        <mxCell id="0LOkazQDAtXmxDKKcfvk-0" value="PlayerOnDeath&lt;div&gt;&lt;br&gt;&lt;/div&gt;" style="swimlane;fontStyle=1;align=center;verticalAlign=top;childLayout=stackLayout;horizontal=1;startSize=26;horizontalStack=0;resizeParent=1;resizeParentMax=0;resizeLast=0;collapsible=1;marginBottom=0;whiteSpace=wrap;html=1;" parent="0LOkazQDAtXmxDKKcfvk-26" vertex="1">
          <mxGeometry x="30" y="50" width="160" height="86" as="geometry">
            <mxRectangle x="30" y="50" width="120" height="40" as="alternateBounds" />
          </mxGeometry>
        </mxCell>
        <mxCell id="0LOkazQDAtXmxDKKcfvk-1" value="+&amp;nbsp;" style="text;strokeColor=none;fillColor=none;align=left;verticalAlign=top;spacingLeft=4;spacingRight=4;overflow=hidden;rotatable=0;points=[[0,0.5],[1,0.5]];portConstraint=eastwest;whiteSpace=wrap;html=1;" parent="0LOkazQDAtXmxDKKcfvk-0" vertex="1">
          <mxGeometry y="26" width="160" height="26" as="geometry" />
        </mxCell>
        <mxCell id="0LOkazQDAtXmxDKKcfvk-2" value="" style="line;strokeWidth=1;fillColor=none;align=left;verticalAlign=middle;spacingTop=-1;spacingLeft=3;spacingRight=3;rotatable=0;labelPosition=right;points=[];portConstraint=eastwest;strokeColor=inherit;" parent="0LOkazQDAtXmxDKKcfvk-0" vertex="1">
          <mxGeometry y="52" width="160" height="8" as="geometry" />
        </mxCell>
        <mxCell id="0LOkazQDAtXmxDKKcfvk-3" value="+ method(type): type" style="text;strokeColor=none;fillColor=none;align=left;verticalAlign=top;spacingLeft=4;spacingRight=4;overflow=hidden;rotatable=0;points=[[0,0.5],[1,0.5]];portConstraint=eastwest;whiteSpace=wrap;html=1;" parent="0LOkazQDAtXmxDKKcfvk-0" vertex="1">
          <mxGeometry y="60" width="160" height="26" as="geometry" />
        </mxCell>
        <mxCell id="0LOkazQDAtXmxDKKcfvk-11" value="Player : Entity" style="swimlane;fontStyle=1;align=center;verticalAlign=top;childLayout=stackLayout;horizontal=1;startSize=26;horizontalStack=0;resizeParent=1;resizeParentMax=0;resizeLast=0;collapsible=1;marginBottom=0;whiteSpace=wrap;html=1;" parent="0LOkazQDAtXmxDKKcfvk-26" vertex="1">
          <mxGeometry x="200" y="50" width="200" height="200" as="geometry" />
        </mxCell>
        <mxCell id="0LOkazQDAtXmxDKKcfvk-12" value="+ index : int&lt;div&gt;+ usedGunIndex : int&lt;/div&gt;&lt;div&gt;+ entity : Entity&lt;/div&gt;&lt;div&gt;+ OnPlayerDeath: Action&amp;lt;index&amp;gt;&lt;/div&gt;" style="text;strokeColor=none;fillColor=none;align=left;verticalAlign=top;spacingLeft=4;spacingRight=4;overflow=hidden;rotatable=0;points=[[0,0.5],[1,0.5]];portConstraint=eastwest;whiteSpace=wrap;html=1;" parent="0LOkazQDAtXmxDKKcfvk-11" vertex="1">
          <mxGeometry y="26" width="200" height="74" as="geometry" />
        </mxCell>
        <mxCell id="0LOkazQDAtXmxDKKcfvk-13" value="" style="line;strokeWidth=1;fillColor=none;align=left;verticalAlign=middle;spacingTop=-1;spacingLeft=3;spacingRight=3;rotatable=0;labelPosition=right;points=[];portConstraint=eastwest;strokeColor=inherit;" parent="0LOkazQDAtXmxDKKcfvk-11" vertex="1">
          <mxGeometry y="100" width="200" height="8" as="geometry" />
        </mxCell>
        <mxCell id="0LOkazQDAtXmxDKKcfvk-14" value="+ void SwitchGun(string name)&lt;div&gt;- OnTriggerEnter2D()&lt;/div&gt;&lt;div&gt;- OnTriggerExit2D()&lt;br&gt;&lt;br&gt;&lt;/div&gt;" style="text;strokeColor=none;fillColor=none;align=left;verticalAlign=top;spacingLeft=4;spacingRight=4;overflow=hidden;rotatable=0;points=[[0,0.5],[1,0.5]];portConstraint=eastwest;whiteSpace=wrap;html=1;" parent="0LOkazQDAtXmxDKKcfvk-11" vertex="1">
          <mxGeometry y="108" width="200" height="92" as="geometry" />
        </mxCell>
        <mxCell id="tbJu6EGKg0CLnxY4LfZ--3" value="Use" style="edgeStyle=orthogonalEdgeStyle;rounded=0;orthogonalLoop=1;jettySize=auto;html=1;entryX=1;entryY=0.25;entryDx=0;entryDy=0;strokeWidth=3;dashed=1;fontSize=20;" edge="1" parent="WIyWlLk6GJQsqaUBKTNV-1" source="WKrA7h7dWS1TObsF-bHl-5" target="0LOkazQDAtXmxDKKcfvk-26">
          <mxGeometry relative="1" as="geometry">
            <Array as="points">
              <mxPoint x="1222" y="666" />
            </Array>
          </mxGeometry>
        </mxCell>
        <mxCell id="WKrA7h7dWS1TObsF-bHl-5" value="&lt;font style=&quot;font-size: 20px;&quot;&gt;Interactable Assembly&lt;/font&gt;" style="swimlane;whiteSpace=wrap;html=1;startSize=30;" parent="WIyWlLk6GJQsqaUBKTNV-1" vertex="1">
          <mxGeometry x="800" y="750" width="845" height="805" as="geometry" />
        </mxCell>
        <mxCell id="0LOkazQDAtXmxDKKcfvk-32" value="«interface»&lt;br&gt;&lt;b&gt;IInteractable&lt;/b&gt;" style="html=1;whiteSpace=wrap;" parent="WKrA7h7dWS1TObsF-bHl-5" vertex="1">
          <mxGeometry x="370" y="40" width="110" height="50" as="geometry" />
        </mxCell>
        <mxCell id="0LOkazQDAtXmxDKKcfvk-28" value="Interactable" style="swimlane;fontStyle=1;align=center;verticalAlign=top;childLayout=stackLayout;horizontal=1;startSize=26;horizontalStack=0;resizeParent=1;resizeParentMax=0;resizeLast=0;collapsible=1;marginBottom=0;whiteSpace=wrap;html=1;" parent="WKrA7h7dWS1TObsF-bHl-5" vertex="1">
          <mxGeometry x="70" y="130" width="330" height="190" as="geometry" />
        </mxCell>
        <mxCell id="0LOkazQDAtXmxDKKcfvk-29" value="+ itemType : eInteractableType&lt;div&gt;+ itemName : string&lt;br&gt;+ canInteract: bool&lt;br&gt;+ autoLoot : bool&lt;br&gt;&lt;/div&gt;" style="text;strokeColor=none;fillColor=none;align=left;verticalAlign=top;spacingLeft=4;spacingRight=4;overflow=hidden;rotatable=0;points=[[0,0.5],[1,0.5]];portConstraint=eastwest;whiteSpace=wrap;html=1;" parent="0LOkazQDAtXmxDKKcfvk-28" vertex="1">
          <mxGeometry y="26" width="330" height="94" as="geometry" />
        </mxCell>
        <mxCell id="0LOkazQDAtXmxDKKcfvk-30" value="" style="line;strokeWidth=1;fillColor=none;align=left;verticalAlign=middle;spacingTop=-1;spacingLeft=3;spacingRight=3;rotatable=0;labelPosition=right;points=[];portConstraint=eastwest;strokeColor=inherit;" parent="0LOkazQDAtXmxDKKcfvk-28" vertex="1">
          <mxGeometry y="120" width="330" height="8" as="geometry" />
        </mxCell>
        <mxCell id="0LOkazQDAtXmxDKKcfvk-31" value="+ Interact()&lt;br&gt;+TriggerEnter()&lt;br&gt;+TriggerExit()" style="text;strokeColor=none;fillColor=none;align=left;verticalAlign=top;spacingLeft=4;spacingRight=4;overflow=hidden;rotatable=0;points=[[0,0.5],[1,0.5]];portConstraint=eastwest;whiteSpace=wrap;html=1;" parent="0LOkazQDAtXmxDKKcfvk-28" vertex="1">
          <mxGeometry y="128" width="330" height="62" as="geometry" />
        </mxCell>
        <mxCell id="0LOkazQDAtXmxDKKcfvk-33" value="" style="endArrow=block;dashed=1;endFill=0;endSize=12;html=1;rounded=0;exitX=0;exitY=0.5;exitDx=0;exitDy=0;entryX=0.5;entryY=0;entryDx=0;entryDy=0;" parent="WKrA7h7dWS1TObsF-bHl-5" source="0LOkazQDAtXmxDKKcfvk-32" target="0LOkazQDAtXmxDKKcfvk-28" edge="1">
          <mxGeometry width="160" relative="1" as="geometry">
            <mxPoint x="470" y="72.5" as="sourcePoint" />
            <mxPoint x="385" y="92.5" as="targetPoint" />
          </mxGeometry>
        </mxCell>
        <mxCell id="WKrA7h7dWS1TObsF-bHl-4" value="Extends" style="endArrow=block;endSize=16;endFill=0;html=1;rounded=0;exitX=0.5;exitY=0;exitDx=0;exitDy=0;" parent="WKrA7h7dWS1TObsF-bHl-5" edge="1">
          <mxGeometry width="160" relative="1" as="geometry">
            <mxPoint x="200" y="440" as="sourcePoint" />
            <mxPoint x="235.76158940397363" y="319.9999999999998" as="targetPoint" />
          </mxGeometry>
        </mxCell>
        <mxCell id="WKrA7h7dWS1TObsF-bHl-10" value="Item" style="swimlane;fontStyle=1;align=center;verticalAlign=top;childLayout=stackLayout;horizontal=1;startSize=26;horizontalStack=0;resizeParent=1;resizeParentMax=0;resizeLast=0;collapsible=1;marginBottom=0;whiteSpace=wrap;html=1;" parent="WKrA7h7dWS1TObsF-bHl-5" vertex="1">
          <mxGeometry x="40" y="440" width="280" height="260" as="geometry" />
        </mxCell>
        <mxCell id="WKrA7h7dWS1TObsF-bHl-11" value="+ static enum: Rarity{Common, Uncommon, Rare,&amp;nbsp;&lt;br&gt;Epic, Exotic, Legendary, Mythical}&lt;div&gt;+ rarityColor: static Dictionary&amp;lt;Rarity, Color&amp;gt;&lt;br&gt;&lt;br&gt;+ appearanceChance: int&lt;br&gt;+ rarity: Rarity&lt;br&gt;+ duration : int (item&#39;s lifetime in seconds)&lt;/div&gt;&lt;div&gt;&lt;br&gt;&lt;/div&gt;" style="text;strokeColor=none;fillColor=none;align=left;verticalAlign=top;spacingLeft=4;spacingRight=4;overflow=hidden;rotatable=0;points=[[0,0.5],[1,0.5]];portConstraint=eastwest;whiteSpace=wrap;html=1;" parent="WKrA7h7dWS1TObsF-bHl-10" vertex="1">
          <mxGeometry y="26" width="280" height="144" as="geometry" />
        </mxCell>
        <mxCell id="WKrA7h7dWS1TObsF-bHl-12" value="" style="line;strokeWidth=1;fillColor=none;align=left;verticalAlign=middle;spacingTop=-1;spacingLeft=3;spacingRight=3;rotatable=0;labelPosition=right;points=[];portConstraint=eastwest;strokeColor=inherit;" parent="WKrA7h7dWS1TObsF-bHl-10" vertex="1">
          <mxGeometry y="170" width="280" height="8" as="geometry" />
        </mxCell>
        <mxCell id="WKrA7h7dWS1TObsF-bHl-13" value="+ Interact()&lt;br&gt;+ TriggerEnter():&lt;div&gt;+ TriggerExit():&lt;/div&gt;&lt;div&gt;&lt;br&gt;&lt;/div&gt;" style="text;strokeColor=none;fillColor=none;align=left;verticalAlign=top;spacingLeft=4;spacingRight=4;overflow=hidden;rotatable=0;points=[[0,0.5],[1,0.5]];portConstraint=eastwest;whiteSpace=wrap;html=1;" parent="WKrA7h7dWS1TObsF-bHl-10" vertex="1">
          <mxGeometry y="178" width="280" height="82" as="geometry" />
        </mxCell>
        <mxCell id="WKrA7h7dWS1TObsF-bHl-15" value="GunItem&lt;div&gt;&lt;br&gt;&lt;/div&gt;" style="swimlane;fontStyle=1;align=center;verticalAlign=top;childLayout=stackLayout;horizontal=1;startSize=26;horizontalStack=0;resizeParent=1;resizeParentMax=0;resizeLast=0;collapsible=1;marginBottom=0;whiteSpace=wrap;html=1;" parent="WKrA7h7dWS1TObsF-bHl-5" vertex="1">
          <mxGeometry x="540" y="300" width="160" height="190" as="geometry" />
        </mxCell>
        <mxCell id="WKrA7h7dWS1TObsF-bHl-16" value="+ gunSO: GunModel&lt;br&gt;+ level : int" style="text;strokeColor=none;fillColor=none;align=left;verticalAlign=top;spacingLeft=4;spacingRight=4;overflow=hidden;rotatable=0;points=[[0,0.5],[1,0.5]];portConstraint=eastwest;whiteSpace=wrap;html=1;" parent="WKrA7h7dWS1TObsF-bHl-15" vertex="1">
          <mxGeometry y="26" width="160" height="84" as="geometry" />
        </mxCell>
        <mxCell id="WKrA7h7dWS1TObsF-bHl-17" value="" style="line;strokeWidth=1;fillColor=none;align=left;verticalAlign=middle;spacingTop=-1;spacingLeft=3;spacingRight=3;rotatable=0;labelPosition=right;points=[];portConstraint=eastwest;strokeColor=inherit;" parent="WKrA7h7dWS1TObsF-bHl-15" vertex="1">
          <mxGeometry y="110" width="160" height="8" as="geometry" />
        </mxCell>
        <mxCell id="WKrA7h7dWS1TObsF-bHl-18" value="&lt;div&gt;+ string GetName()&lt;/div&gt;" style="text;strokeColor=none;fillColor=none;align=left;verticalAlign=top;spacingLeft=4;spacingRight=4;overflow=hidden;rotatable=0;points=[[0,0.5],[1,0.5]];portConstraint=eastwest;whiteSpace=wrap;html=1;" parent="WKrA7h7dWS1TObsF-bHl-15" vertex="1">
          <mxGeometry y="118" width="160" height="72" as="geometry" />
        </mxCell>
        <mxCell id="WKrA7h7dWS1TObsF-bHl-20" value="ArmorItem" style="swimlane;fontStyle=1;align=center;verticalAlign=top;childLayout=stackLayout;horizontal=1;startSize=26;horizontalStack=0;resizeParent=1;resizeParentMax=0;resizeLast=0;collapsible=1;marginBottom=0;whiteSpace=wrap;html=1;" parent="WKrA7h7dWS1TObsF-bHl-5" vertex="1">
          <mxGeometry x="540" y="527" width="160" height="86" as="geometry" />
        </mxCell>
        <mxCell id="WKrA7h7dWS1TObsF-bHl-21" value="+ amount: int" style="text;strokeColor=none;fillColor=none;align=left;verticalAlign=top;spacingLeft=4;spacingRight=4;overflow=hidden;rotatable=0;points=[[0,0.5],[1,0.5]];portConstraint=eastwest;whiteSpace=wrap;html=1;" parent="WKrA7h7dWS1TObsF-bHl-20" vertex="1">
          <mxGeometry y="26" width="160" height="26" as="geometry" />
        </mxCell>
        <mxCell id="WKrA7h7dWS1TObsF-bHl-22" value="" style="line;strokeWidth=1;fillColor=none;align=left;verticalAlign=middle;spacingTop=-1;spacingLeft=3;spacingRight=3;rotatable=0;labelPosition=right;points=[];portConstraint=eastwest;strokeColor=inherit;" parent="WKrA7h7dWS1TObsF-bHl-20" vertex="1">
          <mxGeometry y="52" width="160" height="8" as="geometry" />
        </mxCell>
        <mxCell id="WKrA7h7dWS1TObsF-bHl-23" value="+ void Interact(Player)" style="text;strokeColor=none;fillColor=none;align=left;verticalAlign=top;spacingLeft=4;spacingRight=4;overflow=hidden;rotatable=0;points=[[0,0.5],[1,0.5]];portConstraint=eastwest;whiteSpace=wrap;html=1;" parent="WKrA7h7dWS1TObsF-bHl-20" vertex="1">
          <mxGeometry y="60" width="160" height="26" as="geometry" />
        </mxCell>
        <mxCell id="WKrA7h7dWS1TObsF-bHl-27" value="ChipItem" style="swimlane;fontStyle=1;align=center;verticalAlign=top;childLayout=stackLayout;horizontal=1;startSize=26;horizontalStack=0;resizeParent=1;resizeParentMax=0;resizeLast=0;collapsible=1;marginBottom=0;whiteSpace=wrap;html=1;" parent="WKrA7h7dWS1TObsF-bHl-5" vertex="1">
          <mxGeometry x="540" y="700" width="160" height="86" as="geometry" />
        </mxCell>
        <mxCell id="WKrA7h7dWS1TObsF-bHl-28" value="+ amount: int" style="text;strokeColor=none;fillColor=none;align=left;verticalAlign=top;spacingLeft=4;spacingRight=4;overflow=hidden;rotatable=0;points=[[0,0.5],[1,0.5]];portConstraint=eastwest;whiteSpace=wrap;html=1;" parent="WKrA7h7dWS1TObsF-bHl-27" vertex="1">
          <mxGeometry y="26" width="160" height="26" as="geometry" />
        </mxCell>
        <mxCell id="WKrA7h7dWS1TObsF-bHl-29" value="" style="line;strokeWidth=1;fillColor=none;align=left;verticalAlign=middle;spacingTop=-1;spacingLeft=3;spacingRight=3;rotatable=0;labelPosition=right;points=[];portConstraint=eastwest;strokeColor=inherit;" parent="WKrA7h7dWS1TObsF-bHl-27" vertex="1">
          <mxGeometry y="52" width="160" height="8" as="geometry" />
        </mxCell>
        <mxCell id="WKrA7h7dWS1TObsF-bHl-30" value="+ void Interact(Player)" style="text;strokeColor=none;fillColor=none;align=left;verticalAlign=top;spacingLeft=4;spacingRight=4;overflow=hidden;rotatable=0;points=[[0,0.5],[1,0.5]];portConstraint=eastwest;whiteSpace=wrap;html=1;" parent="WKrA7h7dWS1TObsF-bHl-27" vertex="1">
          <mxGeometry y="60" width="160" height="26" as="geometry" />
        </mxCell>
        <mxCell id="WKrA7h7dWS1TObsF-bHl-39" style="edgeStyle=orthogonalEdgeStyle;rounded=0;orthogonalLoop=1;jettySize=auto;html=1;" parent="WKrA7h7dWS1TObsF-bHl-5" source="WKrA7h7dWS1TObsF-bHl-33" target="WKrA7h7dWS1TObsF-bHl-10" edge="1">
          <mxGeometry relative="1" as="geometry">
            <mxPoint x="440" y="570" as="sourcePoint" />
            <Array as="points">
              <mxPoint x="400" y="570" />
            </Array>
          </mxGeometry>
        </mxCell>
        <mxCell id="WKrA7h7dWS1TObsF-bHl-36" style="edgeStyle=orthogonalEdgeStyle;rounded=0;orthogonalLoop=1;jettySize=auto;html=1;exitX=0;exitY=0.5;exitDx=0;exitDy=0;entryX=0.25;entryY=0.517;entryDx=0;entryDy=0;entryPerimeter=0;" parent="WKrA7h7dWS1TObsF-bHl-5" source="WKrA7h7dWS1TObsF-bHl-16" target="WKrA7h7dWS1TObsF-bHl-33" edge="1">
          <mxGeometry relative="1" as="geometry" />
        </mxCell>
        <mxCell id="WKrA7h7dWS1TObsF-bHl-41" value="Extends" style="edgeLabel;html=1;align=center;verticalAlign=middle;resizable=0;points=[];" parent="WKrA7h7dWS1TObsF-bHl-36" vertex="1" connectable="0">
          <mxGeometry x="0.2252" y="4" relative="1" as="geometry">
            <mxPoint as="offset" />
          </mxGeometry>
        </mxCell>
        <mxCell id="WKrA7h7dWS1TObsF-bHl-42" value="Extends" style="edgeStyle=orthogonalEdgeStyle;rounded=0;orthogonalLoop=1;jettySize=auto;html=1;entryX=1.05;entryY=0.32;entryDx=0;entryDy=0;entryPerimeter=0;" parent="WKrA7h7dWS1TObsF-bHl-5" source="WKrA7h7dWS1TObsF-bHl-20" target="WKrA7h7dWS1TObsF-bHl-33" edge="1">
          <mxGeometry relative="1" as="geometry" />
        </mxCell>
        <mxCell id="WKrA7h7dWS1TObsF-bHl-43" value="Extends" style="edgeStyle=orthogonalEdgeStyle;rounded=0;orthogonalLoop=1;jettySize=auto;html=1;exitX=0.5;exitY=0;exitDx=0;exitDy=0;entryX=0.25;entryY=0.76;entryDx=0;entryDy=0;entryPerimeter=0;" parent="WKrA7h7dWS1TObsF-bHl-5" source="WKrA7h7dWS1TObsF-bHl-27" target="WKrA7h7dWS1TObsF-bHl-33" edge="1">
          <mxGeometry relative="1" as="geometry">
            <Array as="points">
              <mxPoint x="620" y="660" />
              <mxPoint x="400" y="660" />
            </Array>
          </mxGeometry>
        </mxCell>
        <mxCell id="WKrA7h7dWS1TObsF-bHl-33" value="" style="shape=waypoint;sketch=0;size=6;pointerEvents=1;points=[];fillColor=none;resizable=0;rotatable=0;perimeter=centerPerimeter;snapToPoint=1;" parent="WKrA7h7dWS1TObsF-bHl-5" vertex="1">
          <mxGeometry x="390" y="559" width="20" height="20" as="geometry" />
        </mxCell>
        <mxCell id="WKrA7h7dWS1TObsF-bHl-45" value="&lt;font&gt;Framework Assembly(Used by every Assemblies)&lt;/font&gt;" style="swimlane;whiteSpace=wrap;html=1;fontSize=20;startSize=30;" parent="WIyWlLk6GJQsqaUBKTNV-1" vertex="1">
          <mxGeometry x="1343" y="48" width="808" height="417" as="geometry" />
        </mxCell>
        <mxCell id="O3TxoCL6-MyPkNKw1bHR-2" value="&lt;font style=&quot;font-size: 17px;&quot;&gt;Singleton&lt;/font&gt;" style="html=1;whiteSpace=wrap;" vertex="1" parent="WKrA7h7dWS1TObsF-bHl-45">
          <mxGeometry x="217" y="50" width="110" height="50" as="geometry" />
        </mxCell>
        <mxCell id="O3TxoCL6-MyPkNKw1bHR-4" value="Effect" style="swimlane;horizontal=0;whiteSpace=wrap;html=1;fontSize=18;startSize=30;" vertex="1" parent="WKrA7h7dWS1TObsF-bHl-45">
          <mxGeometry x="75" y="131" width="390" height="258" as="geometry" />
        </mxCell>
        <mxCell id="O3TxoCL6-MyPkNKw1bHR-5" value="&lt;font style=&quot;font-size: 17px;&quot;&gt;BloodSpash&lt;/font&gt;" style="html=1;whiteSpace=wrap;" vertex="1" parent="O3TxoCL6-MyPkNKw1bHR-4">
          <mxGeometry x="45" y="20.5" width="110" height="50" as="geometry" />
        </mxCell>
        <mxCell id="O3TxoCL6-MyPkNKw1bHR-6" value="&lt;font style=&quot;font-size: 17px;&quot;&gt;ScreenSkake&lt;/font&gt;" style="html=1;whiteSpace=wrap;" vertex="1" parent="O3TxoCL6-MyPkNKw1bHR-4">
          <mxGeometry x="50" y="94" width="110" height="50" as="geometry" />
        </mxCell>
        <mxCell id="O3TxoCL6-MyPkNKw1bHR-7" value="&lt;font style=&quot;font-size: 17px;&quot;&gt;HarmonicOscillation&lt;/font&gt;" style="html=1;whiteSpace=wrap;" vertex="1" parent="O3TxoCL6-MyPkNKw1bHR-4">
          <mxGeometry x="50" y="158" width="165" height="62" as="geometry" />
        </mxCell>
        <mxCell id="O3TxoCL6-MyPkNKw1bHR-14" value="&lt;font style=&quot;font-size: 17px;&quot;&gt;SmoothCamera&lt;/font&gt;" style="html=1;whiteSpace=wrap;" vertex="1" parent="O3TxoCL6-MyPkNKw1bHR-4">
          <mxGeometry x="210" y="20.5" width="130" height="59.5" as="geometry" />
        </mxCell>
        <mxCell id="O3TxoCL6-MyPkNKw1bHR-9" value="&lt;span style=&quot;font-size: 17px;&quot;&gt;SwitchScene&lt;/span&gt;" style="html=1;whiteSpace=wrap;" vertex="1" parent="WKrA7h7dWS1TObsF-bHl-45">
          <mxGeometry x="353" y="50" width="110" height="50" as="geometry" />
        </mxCell>
        <mxCell id="O3TxoCL6-MyPkNKw1bHR-15" value="Sound" style="swimlane;horizontal=0;whiteSpace=wrap;html=1;fontSize=18;startSize=30;" vertex="1" parent="WKrA7h7dWS1TObsF-bHl-45">
          <mxGeometry x="517" y="133" width="260" height="258" as="geometry" />
        </mxCell>
        <mxCell id="O3TxoCL6-MyPkNKw1bHR-16" value="&lt;span style=&quot;font-size: 17px;&quot;&gt;AudioManager&lt;/span&gt;" style="html=1;whiteSpace=wrap;" vertex="1" parent="O3TxoCL6-MyPkNKw1bHR-15">
          <mxGeometry x="45" y="20.5" width="110" height="50" as="geometry" />
        </mxCell>
        <mxCell id="O3TxoCL6-MyPkNKw1bHR-17" value="&lt;font style=&quot;font-size: 17px;&quot;&gt;Sound&lt;/font&gt;" style="html=1;whiteSpace=wrap;" vertex="1" parent="O3TxoCL6-MyPkNKw1bHR-15">
          <mxGeometry x="50" y="94" width="110" height="50" as="geometry" />
        </mxCell>
        <mxCell id="O3TxoCL6-MyPkNKw1bHR-18" value="&lt;font style=&quot;font-size: 17px;&quot;&gt;SoundCom&lt;/font&gt;" style="html=1;whiteSpace=wrap;" vertex="1" parent="O3TxoCL6-MyPkNKw1bHR-15">
          <mxGeometry x="50" y="158" width="165" height="62" as="geometry" />
        </mxCell>
        <mxCell id="tbJu6EGKg0CLnxY4LfZ--0" value="&lt;font style=&quot;font-size: 17px;&quot;&gt;Entity&lt;/font&gt;" style="html=1;whiteSpace=wrap;" vertex="1" parent="WKrA7h7dWS1TObsF-bHl-45">
          <mxGeometry x="75" y="50" width="110" height="50" as="geometry" />
        </mxCell>
        <mxCell id="O3TxoCL6-MyPkNKw1bHR-1" value="&lt;font style=&quot;font-size: 15px;&quot;&gt;Use&lt;/font&gt;" style="edgeStyle=orthogonalEdgeStyle;rounded=0;orthogonalLoop=1;jettySize=auto;html=1;entryX=0.47;entryY=-0.006;entryDx=0;entryDy=0;entryPerimeter=0;dashed=1;strokeWidth=3;" edge="1" parent="WIyWlLk6GJQsqaUBKTNV-1" source="WKrA7h7dWS1TObsF-bHl-0" target="0LOkazQDAtXmxDKKcfvk-26">
          <mxGeometry relative="1" as="geometry" />
        </mxCell>
        <mxCell id="O3TxoCL6-MyPkNKw1bHR-8" value="Gun Assembly" style="swimlane;whiteSpace=wrap;html=1;fontSize=20;startSize=40;" vertex="1" parent="WIyWlLk6GJQsqaUBKTNV-1">
          <mxGeometry x="260" y="970" width="200" height="200" as="geometry" />
        </mxCell>
      </root>
    </mxGraphModel>
  </diagram>
  <diagram id="-KOn31lEo7uCR9pFi6fE" name="Framework">
    <mxGraphModel dx="1580" dy="867" grid="0" gridSize="10" guides="1" tooltips="1" connect="1" arrows="1" fold="1" page="1" pageScale="1" pageWidth="827" pageHeight="1169" math="0" shadow="0">
      <root>
        <mxCell id="0" />
        <mxCell id="1" parent="0" />
        <mxCell id="kcylk_OpT_FyID3owS0l-1" value="&lt;font&gt;Framework Assembly&lt;/font&gt;" style="swimlane;whiteSpace=wrap;html=1;fontSize=20;startSize=30;" vertex="1" parent="1">
          <mxGeometry x="1118" y="85" width="1070" height="480" as="geometry" />
        </mxCell>
        <mxCell id="kcylk_OpT_FyID3owS0l-2" value="Entity" style="swimlane;fontStyle=1;align=center;verticalAlign=top;childLayout=stackLayout;horizontal=1;startSize=26;horizontalStack=0;resizeParent=1;resizeParentMax=0;resizeLast=0;collapsible=1;marginBottom=0;whiteSpace=wrap;html=1;" vertex="1" parent="kcylk_OpT_FyID3owS0l-1">
          <mxGeometry x="30" y="70" width="200" height="330" as="geometry" />
        </mxCell>
        <mxCell id="kcylk_OpT_FyID3owS0l-3" value="+ group : eGroup&lt;br&gt;+ entityName : string&lt;br&gt;+ health : int&lt;div&gt;+ mainHealth : int&lt;/div&gt;&lt;div&gt;+ armor : int&lt;br&gt;+ mainArmor: int&lt;br&gt;+ virtualShield: int&lt;br&gt;+ immuneRate: float, [0, 1]&lt;br&gt;&lt;br&gt;+ OnGetDamage, OnDeath: event&lt;br&gt;//Reference to components: animator, spriteRenderer,&amp;nbsp;&lt;br&gt;&lt;br&gt;&lt;br&gt;&lt;/div&gt;" style="text;strokeColor=none;fillColor=none;align=left;verticalAlign=top;spacingLeft=4;spacingRight=4;overflow=hidden;rotatable=0;points=[[0,0.5],[1,0.5]];portConstraint=eastwest;whiteSpace=wrap;html=1;" vertex="1" parent="kcylk_OpT_FyID3owS0l-2">
          <mxGeometry y="26" width="200" height="204" as="geometry" />
        </mxCell>
        <mxCell id="kcylk_OpT_FyID3owS0l-4" value="" style="line;strokeWidth=1;fillColor=none;align=left;verticalAlign=middle;spacingTop=-1;spacingLeft=3;spacingRight=3;rotatable=0;labelPosition=right;points=[];portConstraint=eastwest;strokeColor=inherit;" vertex="1" parent="kcylk_OpT_FyID3owS0l-2">
          <mxGeometry y="230" width="200" height="8" as="geometry" />
        </mxCell>
        <mxCell id="kcylk_OpT_FyID3owS0l-5" value="+ bool GetDamage(int damage), Invoke OnGetDamage()&lt;br&gt;+ GetHealth(int ammount)&lt;br&gt;+ bool CheckAlive(): check if heatlh &amp;gt; 0, if No, invoke OnDeath" style="text;strokeColor=none;fillColor=none;align=left;verticalAlign=top;spacingLeft=4;spacingRight=4;overflow=hidden;rotatable=0;points=[[0,0.5],[1,0.5]];portConstraint=eastwest;whiteSpace=wrap;html=1;" vertex="1" parent="kcylk_OpT_FyID3owS0l-2">
          <mxGeometry y="238" width="200" height="92" as="geometry" />
        </mxCell>
        <mxCell id="kcylk_OpT_FyID3owS0l-6" value="&lt;font style=&quot;font-size: 17px;&quot;&gt;Singleton&lt;/font&gt;" style="html=1;whiteSpace=wrap;" vertex="1" parent="kcylk_OpT_FyID3owS0l-1">
          <mxGeometry x="260" y="50" width="110" height="50" as="geometry" />
        </mxCell>
        <mxCell id="kcylk_OpT_FyID3owS0l-7" value="Effect" style="swimlane;horizontal=0;whiteSpace=wrap;html=1;fontSize=18;startSize=30;" vertex="1" parent="kcylk_OpT_FyID3owS0l-1">
          <mxGeometry x="250" y="142" width="390" height="258" as="geometry" />
        </mxCell>
        <mxCell id="kcylk_OpT_FyID3owS0l-8" value="&lt;font style=&quot;font-size: 17px;&quot;&gt;BloodSpash&lt;/font&gt;" style="html=1;whiteSpace=wrap;" vertex="1" parent="kcylk_OpT_FyID3owS0l-7">
          <mxGeometry x="45" y="20.5" width="110" height="50" as="geometry" />
        </mxCell>
        <mxCell id="kcylk_OpT_FyID3owS0l-9" value="&lt;font style=&quot;font-size: 17px;&quot;&gt;ScreenSkake&lt;/font&gt;" style="html=1;whiteSpace=wrap;" vertex="1" parent="kcylk_OpT_FyID3owS0l-7">
          <mxGeometry x="50" y="94" width="110" height="50" as="geometry" />
        </mxCell>
        <mxCell id="kcylk_OpT_FyID3owS0l-10" value="&lt;font style=&quot;font-size: 17px;&quot;&gt;HarmonicOscillation&lt;/font&gt;" style="html=1;whiteSpace=wrap;" vertex="1" parent="kcylk_OpT_FyID3owS0l-7">
          <mxGeometry x="50" y="158" width="165" height="62" as="geometry" />
        </mxCell>
        <mxCell id="kcylk_OpT_FyID3owS0l-11" value="&lt;font style=&quot;font-size: 17px;&quot;&gt;SmoothCamera&lt;/font&gt;" style="html=1;whiteSpace=wrap;" vertex="1" parent="kcylk_OpT_FyID3owS0l-7">
          <mxGeometry x="210" y="20.5" width="130" height="59.5" as="geometry" />
        </mxCell>
        <mxCell id="kcylk_OpT_FyID3owS0l-12" value="&lt;span style=&quot;font-size: 17px;&quot;&gt;SwitchScene&lt;/span&gt;" style="html=1;whiteSpace=wrap;" vertex="1" parent="kcylk_OpT_FyID3owS0l-1">
          <mxGeometry x="410" y="50" width="110" height="50" as="geometry" />
        </mxCell>
        <mxCell id="kcylk_OpT_FyID3owS0l-13" value="Sound" style="swimlane;horizontal=0;whiteSpace=wrap;html=1;fontSize=18;startSize=30;" vertex="1" parent="kcylk_OpT_FyID3owS0l-1">
          <mxGeometry x="700" y="142" width="260" height="258" as="geometry" />
        </mxCell>
        <mxCell id="kcylk_OpT_FyID3owS0l-14" value="&lt;span style=&quot;font-size: 17px;&quot;&gt;AudioManager&lt;/span&gt;" style="html=1;whiteSpace=wrap;" vertex="1" parent="kcylk_OpT_FyID3owS0l-13">
          <mxGeometry x="45" y="20.5" width="110" height="50" as="geometry" />
        </mxCell>
        <mxCell id="kcylk_OpT_FyID3owS0l-15" value="&lt;font style=&quot;font-size: 17px;&quot;&gt;Sound&lt;/font&gt;" style="html=1;whiteSpace=wrap;" vertex="1" parent="kcylk_OpT_FyID3owS0l-13">
          <mxGeometry x="50" y="94" width="110" height="50" as="geometry" />
        </mxCell>
        <mxCell id="kcylk_OpT_FyID3owS0l-16" value="&lt;font style=&quot;font-size: 17px;&quot;&gt;SoundCom&lt;/font&gt;" style="html=1;whiteSpace=wrap;" vertex="1" parent="kcylk_OpT_FyID3owS0l-13">
          <mxGeometry x="50" y="158" width="165" height="62" as="geometry" />
        </mxCell>
      </root>
    </mxGraphModel>
  </diagram>
  <diagram id="rQqhadrBP9eSDD4CMfxv" name="Interactable">
    <mxGraphModel dx="257" dy="477" grid="0" gridSize="10" guides="1" tooltips="1" connect="1" arrows="1" fold="1" page="1" pageScale="1" pageWidth="827" pageHeight="1169" math="0" shadow="0">
      <root>
        <mxCell id="0" />
        <mxCell id="1" parent="0" />
        <mxCell id="3lOukAQry-PojR-DndXQ-1" value="&lt;font style=&quot;font-size: 20px;&quot;&gt;Interactable Assembly&lt;/font&gt;" style="swimlane;whiteSpace=wrap;html=1;startSize=30;" vertex="1" parent="1">
          <mxGeometry x="853" y="828" width="845" height="805" as="geometry" />
        </mxCell>
        <mxCell id="3lOukAQry-PojR-DndXQ-2" value="«interface»&lt;br&gt;&lt;div&gt;&lt;b&gt;Interactable&lt;/b&gt;&lt;/div&gt;" style="html=1;whiteSpace=wrap;" vertex="1" parent="3lOukAQry-PojR-DndXQ-1">
          <mxGeometry x="370" y="40" width="110" height="50" as="geometry" />
        </mxCell>
        <mxCell id="3lOukAQry-PojR-DndXQ-3" value="Interactable" style="swimlane;fontStyle=1;align=center;verticalAlign=top;childLayout=stackLayout;horizontal=1;startSize=26;horizontalStack=0;resizeParent=1;resizeParentMax=0;resizeLast=0;collapsible=1;marginBottom=0;whiteSpace=wrap;html=1;" vertex="1" parent="3lOukAQry-PojR-DndXQ-1">
          <mxGeometry x="70" y="130" width="330" height="190" as="geometry" />
        </mxCell>
        <mxCell id="3lOukAQry-PojR-DndXQ-4" value="+ itemType : eInteractableType&lt;div&gt;+ itemName : string&lt;br&gt;+ canInteract: bool&lt;br&gt;+ autoLoot : bool&lt;br&gt;&lt;/div&gt;" style="text;strokeColor=none;fillColor=none;align=left;verticalAlign=top;spacingLeft=4;spacingRight=4;overflow=hidden;rotatable=0;points=[[0,0.5],[1,0.5]];portConstraint=eastwest;whiteSpace=wrap;html=1;" vertex="1" parent="3lOukAQry-PojR-DndXQ-3">
          <mxGeometry y="26" width="330" height="94" as="geometry" />
        </mxCell>
        <mxCell id="3lOukAQry-PojR-DndXQ-5" value="" style="line;strokeWidth=1;fillColor=none;align=left;verticalAlign=middle;spacingTop=-1;spacingLeft=3;spacingRight=3;rotatable=0;labelPosition=right;points=[];portConstraint=eastwest;strokeColor=inherit;" vertex="1" parent="3lOukAQry-PojR-DndXQ-3">
          <mxGeometry y="120" width="330" height="8" as="geometry" />
        </mxCell>
        <mxCell id="3lOukAQry-PojR-DndXQ-6" value="+ Interact()&lt;br&gt;+TriggerEnter()&lt;br&gt;+TriggerExit()" style="text;strokeColor=none;fillColor=none;align=left;verticalAlign=top;spacingLeft=4;spacingRight=4;overflow=hidden;rotatable=0;points=[[0,0.5],[1,0.5]];portConstraint=eastwest;whiteSpace=wrap;html=1;" vertex="1" parent="3lOukAQry-PojR-DndXQ-3">
          <mxGeometry y="128" width="330" height="62" as="geometry" />
        </mxCell>
        <mxCell id="3lOukAQry-PojR-DndXQ-7" value="" style="endArrow=block;dashed=1;endFill=0;endSize=12;html=1;rounded=0;exitX=0;exitY=0.5;exitDx=0;exitDy=0;entryX=0.5;entryY=0;entryDx=0;entryDy=0;" edge="1" parent="3lOukAQry-PojR-DndXQ-1" source="3lOukAQry-PojR-DndXQ-2" target="3lOukAQry-PojR-DndXQ-3">
          <mxGeometry width="160" relative="1" as="geometry">
            <mxPoint x="470" y="72.5" as="sourcePoint" />
            <mxPoint x="385" y="92.5" as="targetPoint" />
          </mxGeometry>
        </mxCell>
        <mxCell id="3lOukAQry-PojR-DndXQ-31" value="Use" style="edgeStyle=orthogonalEdgeStyle;rounded=0;orthogonalLoop=1;jettySize=auto;html=1;entryX=0;entryY=0.5;entryDx=0;entryDy=0;fontSize=15;strokeWidth=3;dashed=1;" edge="1" parent="3lOukAQry-PojR-DndXQ-1" source="3lOukAQry-PojR-DndXQ-9" target="3lOukAQry-PojR-DndXQ-4">
          <mxGeometry relative="1" as="geometry">
            <Array as="points">
              <mxPoint x="199" y="362" />
              <mxPoint x="50" y="362" />
              <mxPoint x="50" y="203" />
            </Array>
          </mxGeometry>
        </mxCell>
        <mxCell id="3lOukAQry-PojR-DndXQ-9" value="Item" style="swimlane;fontStyle=1;align=center;verticalAlign=top;childLayout=stackLayout;horizontal=1;startSize=26;horizontalStack=0;resizeParent=1;resizeParentMax=0;resizeLast=0;collapsible=1;marginBottom=0;whiteSpace=wrap;html=1;" vertex="1" parent="3lOukAQry-PojR-DndXQ-1">
          <mxGeometry x="59" y="423" width="280" height="260" as="geometry" />
        </mxCell>
        <mxCell id="3lOukAQry-PojR-DndXQ-10" value="+ static enum: Rarity{Common, Uncommon, Rare,&amp;nbsp;&lt;br&gt;Epic, Exotic, Legendary, Mythical}&lt;div&gt;+ rarityColor: static Dictionary&amp;lt;Rarity, Color&amp;gt;&lt;br&gt;&lt;br&gt;+ appearanceChance: int&lt;br&gt;+ rarity: Rarity&lt;br&gt;+ duration : int (item&#39;s lifetime in seconds)&lt;/div&gt;&lt;div&gt;&lt;br&gt;&lt;/div&gt;" style="text;strokeColor=none;fillColor=none;align=left;verticalAlign=top;spacingLeft=4;spacingRight=4;overflow=hidden;rotatable=0;points=[[0,0.5],[1,0.5]];portConstraint=eastwest;whiteSpace=wrap;html=1;" vertex="1" parent="3lOukAQry-PojR-DndXQ-9">
          <mxGeometry y="26" width="280" height="144" as="geometry" />
        </mxCell>
        <mxCell id="3lOukAQry-PojR-DndXQ-11" value="" style="line;strokeWidth=1;fillColor=none;align=left;verticalAlign=middle;spacingTop=-1;spacingLeft=3;spacingRight=3;rotatable=0;labelPosition=right;points=[];portConstraint=eastwest;strokeColor=inherit;" vertex="1" parent="3lOukAQry-PojR-DndXQ-9">
          <mxGeometry y="170" width="280" height="8" as="geometry" />
        </mxCell>
        <mxCell id="3lOukAQry-PojR-DndXQ-12" value="+ Interact()&lt;br&gt;+ TriggerEnter():&lt;div&gt;+ TriggerExit():&lt;/div&gt;&lt;div&gt;&lt;br&gt;&lt;/div&gt;" style="text;strokeColor=none;fillColor=none;align=left;verticalAlign=top;spacingLeft=4;spacingRight=4;overflow=hidden;rotatable=0;points=[[0,0.5],[1,0.5]];portConstraint=eastwest;whiteSpace=wrap;html=1;" vertex="1" parent="3lOukAQry-PojR-DndXQ-9">
          <mxGeometry y="178" width="280" height="82" as="geometry" />
        </mxCell>
        <mxCell id="3lOukAQry-PojR-DndXQ-13" value="GunItem&lt;div&gt;&lt;br&gt;&lt;/div&gt;" style="swimlane;fontStyle=1;align=center;verticalAlign=top;childLayout=stackLayout;horizontal=1;startSize=26;horizontalStack=0;resizeParent=1;resizeParentMax=0;resizeLast=0;collapsible=1;marginBottom=0;whiteSpace=wrap;html=1;" vertex="1" parent="3lOukAQry-PojR-DndXQ-1">
          <mxGeometry x="540" y="300" width="160" height="190" as="geometry" />
        </mxCell>
        <mxCell id="3lOukAQry-PojR-DndXQ-14" value="+ gunSO: GunModel&lt;br&gt;+ level : int" style="text;strokeColor=none;fillColor=none;align=left;verticalAlign=top;spacingLeft=4;spacingRight=4;overflow=hidden;rotatable=0;points=[[0,0.5],[1,0.5]];portConstraint=eastwest;whiteSpace=wrap;html=1;" vertex="1" parent="3lOukAQry-PojR-DndXQ-13">
          <mxGeometry y="26" width="160" height="84" as="geometry" />
        </mxCell>
        <mxCell id="3lOukAQry-PojR-DndXQ-15" value="" style="line;strokeWidth=1;fillColor=none;align=left;verticalAlign=middle;spacingTop=-1;spacingLeft=3;spacingRight=3;rotatable=0;labelPosition=right;points=[];portConstraint=eastwest;strokeColor=inherit;" vertex="1" parent="3lOukAQry-PojR-DndXQ-13">
          <mxGeometry y="110" width="160" height="8" as="geometry" />
        </mxCell>
        <mxCell id="3lOukAQry-PojR-DndXQ-16" value="&lt;div&gt;+ string GetName()&lt;/div&gt;" style="text;strokeColor=none;fillColor=none;align=left;verticalAlign=top;spacingLeft=4;spacingRight=4;overflow=hidden;rotatable=0;points=[[0,0.5],[1,0.5]];portConstraint=eastwest;whiteSpace=wrap;html=1;" vertex="1" parent="3lOukAQry-PojR-DndXQ-13">
          <mxGeometry y="118" width="160" height="72" as="geometry" />
        </mxCell>
        <mxCell id="3lOukAQry-PojR-DndXQ-17" value="ArmorItem" style="swimlane;fontStyle=1;align=center;verticalAlign=top;childLayout=stackLayout;horizontal=1;startSize=26;horizontalStack=0;resizeParent=1;resizeParentMax=0;resizeLast=0;collapsible=1;marginBottom=0;whiteSpace=wrap;html=1;" vertex="1" parent="3lOukAQry-PojR-DndXQ-1">
          <mxGeometry x="540" y="527" width="160" height="86" as="geometry" />
        </mxCell>
        <mxCell id="3lOukAQry-PojR-DndXQ-18" value="+ amount: int" style="text;strokeColor=none;fillColor=none;align=left;verticalAlign=top;spacingLeft=4;spacingRight=4;overflow=hidden;rotatable=0;points=[[0,0.5],[1,0.5]];portConstraint=eastwest;whiteSpace=wrap;html=1;" vertex="1" parent="3lOukAQry-PojR-DndXQ-17">
          <mxGeometry y="26" width="160" height="26" as="geometry" />
        </mxCell>
        <mxCell id="3lOukAQry-PojR-DndXQ-19" value="" style="line;strokeWidth=1;fillColor=none;align=left;verticalAlign=middle;spacingTop=-1;spacingLeft=3;spacingRight=3;rotatable=0;labelPosition=right;points=[];portConstraint=eastwest;strokeColor=inherit;" vertex="1" parent="3lOukAQry-PojR-DndXQ-17">
          <mxGeometry y="52" width="160" height="8" as="geometry" />
        </mxCell>
        <mxCell id="3lOukAQry-PojR-DndXQ-20" value="+ void Interact(Player)" style="text;strokeColor=none;fillColor=none;align=left;verticalAlign=top;spacingLeft=4;spacingRight=4;overflow=hidden;rotatable=0;points=[[0,0.5],[1,0.5]];portConstraint=eastwest;whiteSpace=wrap;html=1;" vertex="1" parent="3lOukAQry-PojR-DndXQ-17">
          <mxGeometry y="60" width="160" height="26" as="geometry" />
        </mxCell>
        <mxCell id="3lOukAQry-PojR-DndXQ-21" value="ChipItem" style="swimlane;fontStyle=1;align=center;verticalAlign=top;childLayout=stackLayout;horizontal=1;startSize=26;horizontalStack=0;resizeParent=1;resizeParentMax=0;resizeLast=0;collapsible=1;marginBottom=0;whiteSpace=wrap;html=1;" vertex="1" parent="3lOukAQry-PojR-DndXQ-1">
          <mxGeometry x="540" y="700" width="160" height="86" as="geometry" />
        </mxCell>
        <mxCell id="3lOukAQry-PojR-DndXQ-22" value="+ amount: int" style="text;strokeColor=none;fillColor=none;align=left;verticalAlign=top;spacingLeft=4;spacingRight=4;overflow=hidden;rotatable=0;points=[[0,0.5],[1,0.5]];portConstraint=eastwest;whiteSpace=wrap;html=1;" vertex="1" parent="3lOukAQry-PojR-DndXQ-21">
          <mxGeometry y="26" width="160" height="26" as="geometry" />
        </mxCell>
        <mxCell id="3lOukAQry-PojR-DndXQ-23" value="" style="line;strokeWidth=1;fillColor=none;align=left;verticalAlign=middle;spacingTop=-1;spacingLeft=3;spacingRight=3;rotatable=0;labelPosition=right;points=[];portConstraint=eastwest;strokeColor=inherit;" vertex="1" parent="3lOukAQry-PojR-DndXQ-21">
          <mxGeometry y="52" width="160" height="8" as="geometry" />
        </mxCell>
        <mxCell id="3lOukAQry-PojR-DndXQ-24" value="+ void Interact(Player)" style="text;strokeColor=none;fillColor=none;align=left;verticalAlign=top;spacingLeft=4;spacingRight=4;overflow=hidden;rotatable=0;points=[[0,0.5],[1,0.5]];portConstraint=eastwest;whiteSpace=wrap;html=1;" vertex="1" parent="3lOukAQry-PojR-DndXQ-21">
          <mxGeometry y="60" width="160" height="26" as="geometry" />
        </mxCell>
        <mxCell id="3lOukAQry-PojR-DndXQ-25" style="edgeStyle=orthogonalEdgeStyle;rounded=0;orthogonalLoop=1;jettySize=auto;html=1;" edge="1" parent="3lOukAQry-PojR-DndXQ-1" source="3lOukAQry-PojR-DndXQ-30" target="3lOukAQry-PojR-DndXQ-9">
          <mxGeometry relative="1" as="geometry">
            <mxPoint x="440" y="570" as="sourcePoint" />
            <Array as="points">
              <mxPoint x="400" y="570" />
            </Array>
          </mxGeometry>
        </mxCell>
        <mxCell id="3lOukAQry-PojR-DndXQ-26" style="edgeStyle=orthogonalEdgeStyle;rounded=0;orthogonalLoop=1;jettySize=auto;html=1;exitX=0;exitY=0.5;exitDx=0;exitDy=0;entryX=0.25;entryY=0.517;entryDx=0;entryDy=0;entryPerimeter=0;" edge="1" parent="3lOukAQry-PojR-DndXQ-1" source="3lOukAQry-PojR-DndXQ-14" target="3lOukAQry-PojR-DndXQ-30">
          <mxGeometry relative="1" as="geometry" />
        </mxCell>
        <mxCell id="3lOukAQry-PojR-DndXQ-27" value="Extends" style="edgeLabel;html=1;align=center;verticalAlign=middle;resizable=0;points=[];" vertex="1" connectable="0" parent="3lOukAQry-PojR-DndXQ-26">
          <mxGeometry x="0.2252" y="4" relative="1" as="geometry">
            <mxPoint as="offset" />
          </mxGeometry>
        </mxCell>
        <mxCell id="3lOukAQry-PojR-DndXQ-28" value="Extends" style="edgeStyle=orthogonalEdgeStyle;rounded=0;orthogonalLoop=1;jettySize=auto;html=1;entryX=1.05;entryY=0.32;entryDx=0;entryDy=0;entryPerimeter=0;" edge="1" parent="3lOukAQry-PojR-DndXQ-1" source="3lOukAQry-PojR-DndXQ-17" target="3lOukAQry-PojR-DndXQ-30">
          <mxGeometry relative="1" as="geometry" />
        </mxCell>
        <mxCell id="3lOukAQry-PojR-DndXQ-29" value="Extends" style="edgeStyle=orthogonalEdgeStyle;rounded=0;orthogonalLoop=1;jettySize=auto;html=1;exitX=0.5;exitY=0;exitDx=0;exitDy=0;entryX=0.25;entryY=0.76;entryDx=0;entryDy=0;entryPerimeter=0;" edge="1" parent="3lOukAQry-PojR-DndXQ-1" source="3lOukAQry-PojR-DndXQ-21" target="3lOukAQry-PojR-DndXQ-30">
          <mxGeometry relative="1" as="geometry">
            <Array as="points">
              <mxPoint x="620" y="660" />
              <mxPoint x="400" y="660" />
            </Array>
          </mxGeometry>
        </mxCell>
        <mxCell id="3lOukAQry-PojR-DndXQ-30" value="" style="shape=waypoint;sketch=0;size=6;pointerEvents=1;points=[];fillColor=none;resizable=0;rotatable=0;perimeter=centerPerimeter;snapToPoint=1;" vertex="1" parent="3lOukAQry-PojR-DndXQ-1">
          <mxGeometry x="390" y="559" width="20" height="20" as="geometry" />
        </mxCell>
      </root>
    </mxGraphModel>
  </diagram>
</mxfile>
